<svg width="351" height="460" viewBox="0 0 351 460" fill="none" xmlns="http://www.w3.org/2000/svg">
<path d="M332.109 182.949C323.912 182.618 315.338 183.65 306.955 184.546C305.224 176.227 301.382 165.477 292.897 168.36C290.936 168.932 289.568 170.702 289.511 172.744L288.599 190.797C274.724 204.904 261.18 219.315 247.964 234.033C247.132 232.648 246.328 231.274 245.487 229.898C232.078 207.906 215.519 185.636 199.561 165.399C193.097 157.211 185.155 150.385 175.019 147.615C165.715 145.074 156.497 147.389 150.086 154.461C142.049 163.354 134.604 176.562 129.094 187.015C125.119 194.548 115.807 211.391 105.724 231.455C91.3709 215.278 76.6474 199.471 61.5534 184.032L60.8072 166.022C60.7503 163.978 59.3849 162.202 57.4237 161.622C48.9453 158.716 45.0941 169.437 43.3336 177.761C34.9446 176.853 26.3811 175.788 18.1735 176.107C9.55364 176.453 6.56477 185.471 3.72538 192.346C1.22604 198.371 -3.50334 207.479 4.27722 211.537C8.55203 213.769 14.3127 214.482 18.9275 215.715L34.5767 219.867C36.9356 222.508 39.4707 224.974 41.2998 227.195C55.4443 244.396 69.5887 261.599 83.7332 278.802C72.2948 305.433 63.5431 328.779 62.0457 332.468C59.6569 337.923 58.4898 343.832 58.6245 349.785C59.1789 359.697 67.3892 365.047 76.1435 366.782C78.7356 367.288 83.1581 368.073 88.534 368.95L87.78 370.726L77.5969 397.111L66.7972 425.172C61.7581 425.281 56.8148 426.559 52.3561 428.909C50.3391 429.987 49.4932 432.642 51.5335 434.285C58.6517 439.963 66.4111 444.787 74.6525 448.659C78.7278 450.58 82.9158 452.25 87.1958 453.659C89.4537 454.406 91.7401 455.084 94.0537 455.691C96.0473 456.339 98.0992 456.793 100.18 457.046C106.087 457.466 107.763 451.13 109.746 446.736L116.297 432.281C120.688 422.559 132.014 398.035 136.451 388.285L142.312 375.304C142.468 375.295 142.641 375.304 142.788 375.286C167.367 373.642 189.359 374.579 213.91 372.046L216.942 371.729C220.812 387.263 225.276 402.631 230.337 417.83C232.989 425.772 235.807 433.671 238.789 441.529C240.248 445.359 241.609 449.309 243.344 453.029C245.08 456.751 247.76 459.291 251.789 459.847C255.819 460.401 259.641 459.335 263.498 458.47C268.074 457.408 272.588 456.131 277.042 454.641C285.846 451.703 294.384 448.021 302.566 443.636C304.527 442.595 304.165 440.03 302.911 438.682C299.92 435.462 295.579 434.742 291.873 432.712C290.046 431.653 288.7 429.927 288.113 427.899C287.174 425.305 286.472 422.584 285.66 419.936L275.28 386.562L269.425 367.85C269.238 367.195 268.831 366.625 268.272 366.236L267.159 362.644C272.907 360.68 278.518 358.341 283.959 355.64C293.454 350.926 298.211 342.121 295.697 331.272C293.028 319.755 286.924 308.462 281.863 297.867C278.702 291.261 275.485 284.714 272.207 278.224L308.841 233.911C310.675 231.698 313.225 229.245 315.582 226.601L331.242 222.491C335.861 221.27 341.623 220.571 345.904 218.351C353.658 214.277 348.998 205.201 346.506 199.162C343.694 192.343 340.738 183.308 332.109 182.949Z" fill="#FBA35A"/>
<path d="M10.7206 187.657C10.7206 187.657 18.441 188.628 23.7528 189.295" stroke="#063F58" stroke-width="6" stroke-linecap="round" stroke-linejoin="round"/>
<path d="M6.79578 198.085L18.3808 199.758" stroke="#063F58" stroke-width="6" stroke-linecap="round" stroke-linejoin="round"/>
<path d="M339.523 194.491C339.523 194.491 331.791 195.451 326.487 196.095" stroke="#063F58" stroke-width="6" stroke-linecap="round" stroke-linejoin="round"/>
<path d="M343.384 204.91L331.776 206.571" stroke="#063F58" stroke-width="6" stroke-linecap="round" stroke-linejoin="round"/>
<path d="M164.849 267.705C167.258 264.212 174.01 260.274 178.737 259.433C183.463 258.593 188.448 257.804 193.21 258.696L194.255 259.142C195.787 254.802 196.414 250.196 196.1 245.605C195.818 243.383 151.362 246.583 151.49 247.698C151.62 248.814 153.849 261.055 159.949 265.276C161.473 266.29 163.119 267.106 164.849 267.705Z" fill="#364678"/>
<path d="M145.975 233.638C146.548 231.068 148.793 229.217 151.424 229.139C154.055 229.063 156.404 230.781 157.127 233.312" stroke="#364678" stroke-width="3.97351" stroke-linecap="round" stroke-linejoin="round"/>
<path d="M190.525 232.779C191.099 230.211 193.342 228.358 195.973 228.282C198.605 228.205 200.953 229.923 201.677 232.454" stroke="#364678" stroke-width="3.97351" stroke-linecap="round" stroke-linejoin="round"/>
<path fill-rule="evenodd" clip-rule="evenodd" d="M151.533 247.698C151.705 248.805 153.893 261.055 159.992 265.276C162.732 267.009 165.75 268.256 168.915 268.965C173.076 270.047 177.571 270.724 181.834 269.917C187.891 268.776 191.579 265.096 193.845 260.044C196.109 254.99 196.349 247.827 196.066 245.605C195.783 243.383 151.405 246.583 151.533 247.698Z" stroke="#364678" stroke-width="3.97351" stroke-linecap="round" stroke-linejoin="round"/>
<path d="M193.21 258.696C188.448 257.839 183.473 258.594 178.737 259.435C174.002 260.275 167.259 264.212 164.849 267.712" stroke="#364678" stroke-width="3.97351" stroke-linecap="round" stroke-linejoin="round"/>
<path d="M295.928 62C291.845 67.9984 285.44 63.6744 281.355 69.6757C277.271 75.6769 283.678 80.0007 279.595 85.9992C275.513 91.9975 269.105 87.6764 265.022 93.6749C260.938 99.6761 267.344 104 263.263 109.998C259.178 116 252.771 111.676 248.69 117.674C244.605 123.675 251.012 127.999 246.928 134" stroke="#465992" stroke-width="6" stroke-miterlimit="10" stroke-linecap="round"/>
<path d="M186.467 3C186.774 10.2674 178.63 10.5767 178.936 17.8474C179.243 25.1182 187.387 24.8089 187.694 32.0763C188 39.3436 179.856 39.6563 180.163 46.9237C180.468 54.1945 188.612 53.8852 188.919 61.1525C189.226 68.4233 181.081 68.7326 181.388 76" stroke="#465992" stroke-width="6" stroke-miterlimit="10" stroke-linecap="round"/>
<path d="M60.6204 53C64.2282 59.4149 57.4079 63.2537 61.0183 69.6717C64.6273 76.0896 71.4476 72.2507 75.0553 78.6656C78.6644 85.0805 71.8454 88.9224 75.4532 95.3373C79.0622 101.755 85.8838 97.9163 89.4915 104.331C93.1006 110.749 86.2803 114.588 89.888 121.003C93.4984 127.421 100.319 123.582 103.928 130" stroke="#465992" stroke-width="6" stroke-miterlimit="10" stroke-linecap="round"/>
<path d="M93.1274 27C92.0862 28.3966 95.426 33.3166 96.0413 34.4819C97.3724 36.9999 98.9132 39.344 99.9277 42" stroke="#F87761" stroke-width="6" stroke-linecap="round"/>
<path d="M279.928 38C277.71 41.7903 275.373 45.377 272.928 49" stroke="#F87761" stroke-width="6" stroke-linecap="round"/>
<path d="M41.9277 100C44.4296 103.385 48.1039 105.053 50.9277 108" stroke="#F87761" stroke-width="6" stroke-linecap="round"/>
<path d="M150.928 53C152.271 57.7212 156.059 62.0288 158.928 66" stroke="#F87761" stroke-width="6" stroke-linecap="round"/>
<path d="M288.928 123C294.385 119.918 299.612 116.34 304.928 113" stroke="#F87761" stroke-width="6" stroke-linecap="round"/>
<path d="M214.928 23C212.942 26.885 210.406 30.4491 207.928 34" stroke="#F87761" stroke-width="6" stroke-linecap="round"/>
<path d="M138.928 120C135.997 116.201 132.136 113.266 129.062 109.563C128.266 108.603 127.928 108.206 127.928 107" stroke="#F87761" stroke-width="6" stroke-linecap="round"/>
<path d="M220.928 101C222.208 97.1182 228.928 94.3207 228.928 90" stroke="#F87761" stroke-width="6" stroke-linecap="round"/>
</svg>
